<?xml version="1.0" encoding="utf-8"?>
<!-- Generator: Adobe Illustrator 24.1.2, SVG Export Plug-In . SVG Version: 6.00 Build 0)  -->
<svg version="1.1"
	 id="svg32" xmlns:inkscape="http://www.inkscape.org/namespaces/inkscape" xmlns:sodipodi="http://sodipodi.sourceforge.net/DTD/sodipodi-0.dtd" xmlns:svg="http://www.w3.org/2000/svg"
	 xmlns="http://www.w3.org/2000/svg" xmlns:xlink="http://www.w3.org/1999/xlink" x="0px" y="0px" viewBox="0 0 1199 890"
	 style="enable-background:new 0 0 1199 890;" xml:space="preserve">
<style type="text/css">
	.st0{fill:#FFFFFF;}
</style>
<sodipodi:namedview  bordercolor="#666666" borderopacity="1.0" id="namedview34" inkscape:current-layer="svg32" inkscape:cx="471.12486" inkscape:cy="1041.9336" inkscape:document-units="pt" inkscape:pagecheckerboard="false" inkscape:pageopacity="0.0" inkscape:pageshadow="2" inkscape:window-height="1586" inkscape:window-maximized="1" inkscape:window-width="2880" inkscape:window-x="-11" inkscape:window-y="973" inkscape:zoom="0.42133205" objecttolerance="1" pagecolor="#ffffff" showgrid="false" units="pt" width="1600mm">
	</sodipodi:namedview>
<g id="g30" transform="matrix(0.1,0,0,-0.1,-179.19684,1220)">
	<path id="path2" class="st0" d="M4952,12191c2-5,642-1294,1423-2864c1227-2468,1422-2853,1433-2839c7,9,236,463,509,1008l497,991
		l-148,299l-148,299l-204-415c-112-228-272-555-356-726c-84-172-156-309-159-305c-5,5-703,1418-1755,3549l-273,552h808h807l334-672
		c183-370,526-1059,761-1530l428-857l179,352c99,194,498,985,886,1760l708,1407l-318-2l-318-3l-571-1157c-313-636-573-1159-576-1162
		s-259,508-568,1137c-310,628-570,1152-577,1165l-14,22H6344C5529,12200,4950,12196,4952,12191z"/>
	<path id="path4" class="st0" d="M9014,12173c-41-76-524-1067-524-1077c-1-13,283-595,290-596c3,0,117,224,253,498
		c137,273,329,653,428,843c98,191,179,349,179,353c0,3-137,6-305,6h-306L9014,12173z"/>
	<path id="path6" class="st0" d="M6533,11093c224-458,1263-2543,1267-2543c3,0,115,221,250,490l245,490l-147,293l-146,292l-99-205
		l-99-204l-238,479c-131,264-292,591-358,728l-121,247h-294h-293L6533,11093z"/>
	<path id="path8" class="st0" d="M1792,5391c15-41,864-1841,868-1841c13,0,231,472,226,488c-3,9-147,319-320,687l-315,670l-231,3
		C1883,5399,1790,5397,1792,5391z"/>
	<path id="path10" class="st0" d="M3756,5328c-128-279-729-1553-740-1571c-21-32-206-425-206-437c0-7,80-9,231-8l232,3l482,1026
		c265,565,485,1034,488,1043c6,14-16,16-224,16h-230L3756,5328z"/>
	<path id="path12" class="st0" d="M5043,5389c-140-23-239-92-289-201l-29-63v-760c0-707,1-764,18-812c23-66,74-133,120-158l36-19
		l135,140l135,139l1,707c0,388,3,714,6,723c17,43,40,45,501,45h438l95,98c53,53,111,114,130,135l34,37l-640-1
		C5383,5398,5072,5394,5043,5389z"/>
	<path id="path14" class="st0" d="M7280,4355V3310h151h150l70,144l69,145v900v901h-220h-220V4355z"/>
	<path id="path16" class="st0" d="M9092,5268l3-133l270-3l269-2l89,87c49,49,107,109,129,136l40,47h-401h-402L9092,5268z"/>
	<path id="path18" class="st0" d="M10081,5268c-68-73-119-134-113-136c9-3,12-236,12-913v-909h220h220v910v910h443h442l68,135
		l67,135h-618l-617-1L10081,5268z"/>
	<path id="path20" class="st0" d="M11857,5271c-31-71-57-132-57-135s244-6,543-6h544l126,129c70,71,127,132,127,135s-276,6-613,6
		h-613L11857,5271z"/>
	<path id="path22" class="st0" d="M12607,4489l-848-910l3-132l3-132l145-3l145-3l850,912l850,911l3,134l3,134l-153-1h-153
		L12607,4489z"/>
	<path id="path24" class="st0" d="M6498,5202l-128-136v-697c0-419-4-708-10-723c-5-14-21-33-37-43c-25-17-63-18-475-21l-447-3
		l-120-127c-67-70-117-130-112-135c13-13,1275-2,1339,12c133,30,214,88,264,189l33,67v765c0,708-1,769-18,816c-10,28-28,65-41,82
		c-27,37-94,92-110,91C6630,5339,6568,5277,6498,5202z"/>
	<path id="path26" class="st0" d="M7899,3454c-32-69-59-129-59-135c0-5,219-9,570-9h570l21,43c12,23,41,84,65,135l43,92h-575h-575
		L7899,3454z"/>
	<path id="path28" class="st0" d="M12501,3453c-67-70-121-131-121-135c0-5,287-7,638-6l637,3l62,125c34,69,62,128,62,133
		c1,4-260,7-578,7h-579L12501,3453z"/>
</g>
</svg>
